<?xml version="1.0" encoding="UTF-8"?>
<svg width="32" height="32" viewBox="0 0 90.24 90.24" fill="none" xmlns="http://www.w3.org/2000/svg">
  <g>
    <path d="M21.12,63.14c-1.75,4.04-3.32,12.16-4.26,17.16,8.64,6.95,19.74,10.65,31.47,9.82-7.01-31.06,3.47-33.18,11.77-34.85,2.9-.59,5.44-1.1,5.88-3.36l2.49-12.9-8.35-1.05c-4.87-.61-6.06-9.96-10.66-9.96h-16.28c-4.01,0-8.16,4.49-11.35,10.44-3.24,6.03-5.42,13.55-5.54,19.95,3.04.59,7.11,1.65,10.53.56,2.76-.88.71-14.28,8.7-21.19l2.5,2.89c-7.52,6.51-3.41,19.83-10.05,21.94-2.27.73-4.65.76-6.84.54h0ZM13.53,77.34C5.17,69.14,0,57.74,0,45.12,0,20.2,20.2,0,45.12,0s45.12,20.2,45.12,45.12c0,22.37-16.35,41.17-38.07,44.57-6.32-27.63,2.06-29.33,8.69-30.67,4.25-.86,7.97-1.61,8.89-6.39l3.26-16.9-12.43-1.56c-1.83-.23-4.15-10-11.12-10h-16.29c-12.09.11-20.93,22.86-20.73,34.79l.09,2.94,4.72.61c-1.55,4.02-2.81,10.12-3.72,14.83h0Z"
          style="fill: #fba919; fill-rule: evenodd;"/>
  </g>
</svg>